<?xml version="1.0" standalone="no"?>
<!DOCTYPE svg PUBLIC "-//W3C//DTD SVG 20010904//EN"
 "http://www.w3.org/TR/2001/REC-SVG-20010904/DTD/svg10.dtd">
<svg version="1.0" xmlns="http://www.w3.org/2000/svg"
 width="150.000000pt" height="150.000000pt" viewBox="0 0 150.000000 150.000000"
 preserveAspectRatio="xMidYMid meet">

<g transform="translate(0.000000,150.000000) scale(0.100000,-0.100000)"
fill="#000000" stroke="none">
<path d="M729 1307 c-14 -33 -30 -57 -39 -57 -10 0 -16 -11 -17 -32 -1 -17 -7
-36 -13 -42 -5 -5 -10 -20 -10 -33 0 -13 -4 -23 -10 -23 -5 0 -14 -10 -21 -21
-9 -17 -8 -23 2 -30 11 -7 10 -9 -3 -9 -10 0 -18 -7 -18 -15 0 -10 -9 -14 -25
-13 -23 2 -37 18 -15 18 6 0 10 7 10 15 0 11 -7 14 -25 9 -25 -6 -25 -6 -25
60 0 64 -23 134 -49 150 -5 3 0 -11 10 -32 14 -27 19 -55 18 -100 -1 -34 -6
-65 -10 -68 -4 -2 -16 9 -25 26 -10 16 -24 30 -30 30 -6 0 -20 12 -30 28 -24
37 -37 47 -126 92 l-77 39 19 -37 c11 -20 20 -48 20 -63 0 -14 11 -47 24 -74
19 -36 22 -53 15 -67 -6 -12 -6 -18 1 -18 5 0 10 -11 10 -25 0 -24 -2 -25 -65
-25 -51 0 -65 -3 -65 -15 0 -9 9 -15 25 -15 36 0 34 -45 -2 -76 -16 -13 -31
-24 -35 -24 -3 0 0 -14 9 -30 8 -17 15 -55 16 -85 1 -42 5 -55 17 -55 8 0 25
-18 38 -40 l23 -40 -26 0 c-14 0 -24 5 -22 11 1 6 -4 14 -10 16 -10 3 -13 -11
-13 -52 0 -41 3 -56 13 -53 6 3 13 14 15 26 4 28 28 28 43 0 9 -16 9 -23 0
-26 -16 -5 -13 -32 4 -32 8 0 15 8 15 17 0 16 1 16 17 0 16 -16 16 -18 -8 -44
-14 -16 -48 -57 -75 -93 l-49 -64 35 20 c31 19 47 21 155 17 66 -2 130 -6 143
-9 15 -5 22 -2 22 8 0 20 62 18 68 -1 3 -8 1 -11 -4 -8 -5 3 -16 -11 -25 -31
-13 -30 -52 -113 -67 -144 -2 -3 14 2 35 13 20 10 51 19 68 19 16 0 53 13 81
29 49 26 52 27 63 9 14 -23 32 -23 38 0 4 18 8 17 59 -10 31 -15 70 -28 87
-28 18 0 45 -7 61 -15 15 -8 30 -15 31 -15 2 0 -10 32 -26 71 l-29 71 23 19
c31 25 103 29 120 6 6 -9 10 -9 14 1 2 6 22 12 43 12 21 0 51 5 66 10 21 8 35
7 65 -8 22 -11 39 -18 39 -16 0 3 -20 32 -45 66 -25 34 -45 66 -45 70 0 4 23
8 50 8 28 0 50 5 50 10 0 6 -10 10 -21 10 -19 0 -21 4 -16 36 4 25 2 41 -8 51
-29 28 -11 103 24 103 6 0 10 12 10 28 0 15 0 34 0 42 2 73 -8 86 -66 85 l-38
0 -2 -110 c-2 -96 0 -113 18 -137 10 -15 22 -41 25 -58 6 -27 4 -30 -19 -30
-20 0 -24 4 -20 20 3 12 -8 37 -31 69 -28 37 -36 58 -36 90 l0 41 -56 0 -56 0
7 -75 c5 -53 4 -75 -4 -75 -11 0 -15 26 -11 64 2 18 1 18 -16 2 -14 -14 -15
-22 -6 -36 10 -17 7 -30 -9 -30 -4 0 -8 61 -8 136 -1 75 -2 139 -3 143 -3 31
4 41 33 41 30 0 30 -1 29 -47 -3 -75 -4 -73 44 -73 26 0 46 -5 49 -12 3 -7 6
22 6 65 l1 77 29 0 c23 0 30 -5 33 -22 2 -17 11 -24 31 -26 l27 -3 0 95 c0 79
-3 96 -15 96 -12 0 -15 -14 -15 -66 0 -42 -4 -63 -10 -59 -6 4 -8 15 -5 26 9
27 -43 39 -62 14 -8 -12 -17 -15 -23 -9 -16 16 -1 48 36 72 31 21 46 52 25 52
-6 0 3 25 20 56 16 31 29 69 29 84 0 16 11 42 26 59 14 17 24 31 22 31 -15 0
-149 -72 -175 -94 -19 -16 -37 -24 -47 -20 -10 4 -16 1 -16 -7 0 -7 -3 -9 -7
-6 -10 11 -43 -24 -43 -45 0 -14 -5 -18 -18 -14 -20 7 -72 -34 -72 -57 0 -23
-15 -29 -44 -16 -32 15 -25 28 11 22 27 -4 27 -4 8 12 -11 9 -19 21 -18 26 2
5 -6 9 -16 9 -16 0 -19 6 -18 34 1 22 6 32 15 29 6 -3 12 0 12 6 0 6 -9 11
-20 11 -14 0 -20 7 -20 22 0 12 -3 18 -7 15 -8 -8 -41 45 -58 92 l-11 34 -25
-56z m-439 -377 l0 -30 92 0 91 0 -23 -25 c-13 -14 -34 -25 -46 -25 -23 0 -23
-1 -26 -142 l-3 -143 -27 40 c-26 37 -28 47 -28 142 l0 102 -36 3 c-37 3 -37
3 -41 56 -4 50 -3 52 21 52 22 0 26 -5 26 -30z m910 0 c0 -5 -5 -10 -11 -10
-5 0 -7 5 -4 10 3 6 8 10 11 10 2 0 4 -4 4 -10z m-287 -56 c-12 -20 -24 -24
-62 -24 -71 0 -72 -3 -69 -116 l3 -99 54 -5 c44 -4 55 -9 62 -27 8 -23 7 -23
-71 -23 -106 0 -110 6 -110 156 0 97 3 115 20 137 22 27 70 36 152 28 37 -3
37 -3 21 -27z m-245 1 c-10 -22 -17 -25 -64 -25 -47 0 -54 -3 -59 -22 -11 -49
-1 -63 46 -66 40 -3 69 -21 69 -43 0 -5 -26 -9 -57 -11 -52 -3 -58 -5 -61 -26
-5 -32 15 -52 52 -52 29 0 66 -33 52 -47 -7 -7 -104 -5 -127 2 -26 9 -30 30
-30 159 1 152 4 156 112 156 l79 0 -12 -25z m222 -134 c15 -29 13 -31 -25 -31
-31 0 -35 3 -35 25 0 20 5 25 25 25 14 0 29 -8 35 -19z m-360 -273 c-27 -22
-36 -18 -21 11 7 13 17 18 28 14 14 -5 13 -9 -7 -25z m65 22 c-3 -5 -12 -10
-18 -10 -7 0 -6 4 3 10 19 12 23 12 15 0z m-120 -30 c-3 -5 -13 -10 -21 -10
-8 0 -12 5 -9 10 3 6 13 10 21 10 8 0 12 -4 9 -10z"/>
<path d="M946 1241 c-4 -7 -5 -15 -2 -18 9 -9 19 4 14 18 -4 11 -6 11 -12 0z"/>
<path d="M540 1185 c0 -8 7 -15 15 -15 11 0 15 -11 15 -40 0 -29 4 -40 15 -40
11 0 15 11 15 40 0 29 4 40 15 40 8 0 15 7 15 15 0 11 -12 15 -45 15 -33 0
-45 -4 -45 -15z"/>
<path d="M928 1193 c-9 -2 -19 -11 -22 -19 -6 -16 2 -44 13 -44 10 0 51 39 51
49 0 12 -21 18 -42 14z"/>
<path d="M1252 1098 c6 -18 28 -21 28 -4 0 9 -7 16 -16 16 -9 0 -14 -5 -12
-12z"/>
<path d="M216 1064 c-9 -25 -7 -34 8 -34 19 0 28 14 20 34 -8 20 -20 20 -28 0z"/>
<path d="M1286 912 c-3 -6 -1 -14 5 -17 15 -10 25 3 12 16 -7 7 -13 7 -17 1z"/>
<path d="M1290 630 c0 -5 7 -10 15 -10 8 0 15 5 15 10 0 6 -7 10 -15 10 -8 0
-15 -4 -15 -10z"/>
</g>
</svg>
